<?xml version="1.0" encoding="UTF-8"?>
<svg height="16px" viewBox="0 0 16 16" width="16px" xmlns="http://www.w3.org/2000/svg">
  <!-- Mic muted — cream mic + X, pairs with muted.svg speakers pattern -->
  <g fill="#F3EEE4">
    <path d="M8 1a2.5 2.5 0 0 0-2.5 2.5v5a2.5 2.5 0 0 0 5 0v-5A2.5 2.5 0 0 0 8 1zm-4 6v1.5a4 4 0 0 0 3.5 3.95V14H6a.5.5 0 0 0 0 1h4a.5.5 0 0 0 0-1H8.5v-1.55A4 4 0 0 0 12 8.5V7a.5.5 0 0 0-1 0v1.5a3 3 0 0 1-6 0V7a.5.5 0 0 0-1 0z" opacity="0.55"/>
    <path d="M3.293 3.293a1 1 0 0 1 1.414 0L12.707 11.293a1 1 0 0 1-1.414 1.414L3.293 4.707a1 1 0 0 1 0-1.414z"/>
  </g>
</svg>
